<svg style="display:none">
  <symbol id="icon-users" class="w-6 h-6 text-gray-800 " aria-hidden="true"
    xmlns="http://www.w3.org/2000/svg" width="24" height="24" fill="currentColor"
    viewBox="0 0 24 24">
    <path fill-rule="evenodd"
      d="M8 4a4 4 0 1 0 0 8 4 4 0 0 0 0-8Zm-2 9a4 4 0 0 0-4 4v1a2 2 0 0 0 2 2h8a2 2 0 0 0 2-2v-1a4 4 0 0 0-4-4H6Zm7.25-2.095c.478-.86.75-1.85.75-2.905a5.973 5.973 0 0 0-.75-2.906 4 4 0 1 1 0 5.811ZM15.466 20c.34-.588.535-1.271.535-2v-1a5.978 5.978 0 0 0-1.528-4H18a4 4 0 0 1 4 4v1a2 2 0 0 1-2 2h-4.535Z"
      clip-rule="evenodd" />
  </symbol>

  <symbol id="icon-info" class="w-6 h-6 text-gray-800 " aria-hidden="true"
    xmlns="http://www.w3.org/2000/svg" width="24" height="24" fill="currentColor"
    viewBox="0 0 28 28">
    <path fill-rule="evenodd"
      d="M2 12C2 6.477 6.477 2 12 2s10 4.477 10 10-4.477 10-10 10S2 17.523 2 12Zm9.408-5.5a1 1 0 1 0 0 2h.01a1 1 0 1 0 0-2h-.01ZM10 10a1 1 0 1 0 0 2h1v3h-1a1 1 0 1 0 0 2h4a1 1 0 1 0 0-2h-1v-4a1 1 0 0 0-1-1h-2Z"
      clip-rule="evenodd" />
  </symbol>
  <symbol id="icon-help" aria-hidden="true"
    class="w-6 h-6 text-gray-800 "
    fill="currentColor" viewBox="0 0 20 20" xmlns="http://www.w3.org/2000/svg">
    <path fill-rule="evenodd"
      d="M18 10a8 8 0 11-16 0 8 8 0 0116 0zm-2 0c0 .993-.241 1.929-.668 2.754l-1.524-1.525a3.997 3.997 0 00.078-2.183l1.562-1.562C15.802 8.249 16 9.1 16 10zm-5.165 3.913l1.58 1.58A5.98 5.98 0 0110 16a5.976 5.976 0 01-2.516-.552l1.562-1.562a4.006 4.006 0 001.789.027zm-4.677-2.796a4.002 4.002 0 01-.041-2.08l-.08.08-1.53-1.533A5.98 5.98 0 004 10c0 .954.223 1.856.619 2.657l1.54-1.54zm1.088-6.45A5.974 5.974 0 0110 4c.954 0 1.856.223 2.657.619l-1.54 1.54a4.002 4.002 0 00-2.346.033L7.246 4.668zM12 10a2 2 0 11-4 0 2 2 0 014 0z"
      clip-rule="evenodd"></path>
  </symbol>


<symbol id="icon-contacts" class="w-6 h-6 text-gray-800 " aria-hidden="true"
  xmlns="http://www.w3.org/2000/svg" width="24" height="24" fill="currentColor"
  viewBox="0 0 24 24">
  <path d="M12 12c2.21 0 4-1.79 4-4S14.21 4 12 4s-4 1.79-4 4s1.79 4 4 4zm0 2c-3.31 0-10 1.67-10 5v1h20v-1c0-3.33-6.69-5-10-5z"/>
</symbol>

<symbol id="icon-home" class="w-6 h-6 text-gray-800 " aria-hidden="true"
  xmlns="http://www.w3.org/2000/svg" width="24" height="24" fill="currentColor"
  viewBox="0 0 24 24">
  <path d="M12 3l9 9h-3v9H6v-9H3l9-9z"/>
</symbol>
<symbol id="icon-exit"
  aria-hidden="true"
  class="w-6 h-6 text-gray-800 "
  width="24"
  height="24"
  stroke="currentColor"
  viewBox="0 0 24 24"
  xmlns="http://www.w3.org/2000/svg">
  <path style="fill:none" stroke-linecap="round" stroke-linejoin="round" stroke-width="2" d="M17 16l4-4m0 0l-4-4m4 4H7m6 4v1a3 3 0 01-3 3H6a3 3 0 01-3-3V7a3 3 0 013-3h4a3 3 0 013 3v1"></path>
</symbol>
<symbol
  id="icon-left"
  className="w-6 h-6 text-gray-800 "
  aria-hidden="true"
  xmlns="http://www.w3.org/2000/svg"
  width="24"
  height="24"
  viewBox="0 0 24 24">
  <path stroke="currentColor" stroke-linecap="round" stroke-linejoin="round" stroke-width="2" d="M5 12h14M5 12l4-4m-4 4 4 4"/>
</symbol>
<symbol
  id="icon-generate"
  className="w-6 h-6 text-gray-800"
  aria-hidden="true"
  xmlns="http://www.w3.org/2000/svg"
  width="24"
  height="24"
  fill="currentColor"
  viewBox="0 0 24 24">
  <path fill-rule="currentColor" d="M17.44 3a1 1 0 0 1 .707.293l2.56 2.56a1 1 0 0 1 0 1.414L18.194 9.78 14.22 5.806l2.513-2.513A1 1 0 0 1 17.44 3Zm-4.634 4.22-9.513 9.513a1 1 0 0 0 0 1.414l2.56 2.56a1 1 0 0 0 1.414 0l9.513-9.513-3.974-3.974ZM6 6a1 1 0 0 1 1 1v1h1a1 1 0 0 1 0 2H7v1a1 1 0 1 1-2 0v-1H4a1 1 0 0 1 0-2h1V7a1 1 0 0 1 1-1Zm9 9a1 1 0 0 1 1 1v1h1a1 1 0 1 1 0 2h-1v1a1 1 0 1 1-2 0v-1h-1a1 1 0 1 1 0-2h1v-1a1 1 0 0 1 1-1Z" clip-rule="currentColor"/>
  <path d="M19 13h-2v2h2v-2ZM13 3h-2v2h2V3Zm-2 2H9v2h2V5ZM9 3H7v2h2V3Zm12 8h-2v2h2v-2Zm0 4h-2v2h2v-2Z"/>
</symbol>
<symbol
  id="icon-search"
  className="w-6 h-6 text-gray-800 "
  aria-hidden="true" xmlns="http://www.w3.org/2000/svg"
  width="24"
  height="24"
  fill="none"
  viewBox="0 0 30 30">
  <path stroke="currentColor" strokeLinecap="round" strokeWidth="2" d="m21 21-3.5-3.5M17 10a7 7 0 1 1-14 0 7 7 0 0 1 14 0Z"/>
</symbol>
<symbol
    id="icon-trash"
    class="h-6 w-6 text-white"
    xmlns="http://www.w3.org/2000/svg"
    viewBox="0 0 573.496 573.496"
    xml:space="preserve">
<g>
	<g>
		<path d="M376.041,111.435V76.395H0v420.707h376.041V283.443l-38.615-145.965l-3.914-14.792l14.793-3.914L376.041,111.435z
			 M105.392,439.65h-30.6V133.843h30.6V439.65z M203.318,439.65h-30.6V133.843h30.6V439.65z M301.248,439.65h-30.601V133.843h30.601
			V439.65z"/>
		<path d="M466.678,205.193l-7.396,1.955l-7.396,1.956l-25.195-95.243l-50.648,13.4l-23.826,6.304l23.826,90.056l72.35,273.478
			l74.475-19.703l-23.746-89.762l7.396-1.956l7.396-1.955l59.584-15.762l-47.23-178.53L466.678,205.193z M506.08,354.142
			l-7.395,1.956l-7.396,1.955l-31.58-119.368l7.396-1.956l7.396-1.955l30-7.938l31.58,119.367L506.08,354.142z"/>
	</g>
</g>
</symbol>

<symbol
  className="w-6 h-6 "
    id="icon-gear"
    width="20"
    height="20"
    viewBox="0 0 512 512"
    xmlns="http://www.w3.org/2000/svg">
<path d="M424.5,216.5h-15.2c-12.4,0-22.8-10.7-22.8-23.4c0-6.4,2.7-12.2,7.5-16.5l9.8-9.6c9.7-9.6,9.7-25.3,0-34.9l-22.3-22.1  c-4.4-4.4-10.9-7-17.5-7c-6.6,0-13,2.6-17.5,7l-9.4,9.4c-4.5,5-10.5,7.7-17,7.7c-12.8,0-23.5-10.4-23.5-22.7V89.1  c0-13.5-10.9-25.1-24.5-25.1h-30.4c-13.6,0-24.4,11.5-24.4,25.1v15.2c0,12.3-10.7,22.7-23.5,22.7c-6.4,0-12.3-2.7-16.6-7.4l-9.7-9.6  c-4.4-4.5-10.9-7-17.5-7s-13,2.6-17.5,7L110,132c-9.6,9.6-9.6,25.3,0,34.8l9.4,9.4c5,4.5,7.8,10.5,7.8,16.9  c0,12.8-10.4,23.4-22.8,23.4H89.2c-13.7,0-25.2,10.7-25.2,24.3V256v15.2c0,13.5,11.5,24.3,25.2,24.3h15.2  c12.4,0,22.8,10.7,22.8,23.4c0,6.4-2.8,12.4-7.8,16.9l-9.4,9.3c-9.6,9.6-9.6,25.3,0,34.8l22.3,22.2c4.4,4.5,10.9,7,17.5,7  c6.6,0,13-2.6,17.5-7l9.7-9.6c4.2-4.7,10.2-7.4,16.6-7.4c12.8,0,23.5,10.4,23.5,22.7v15.2c0,13.5,10.8,25.1,24.5,25.1h30.4  c13.6,0,24.4-11.5,24.4-25.1v-15.2c0-12.3,10.7-22.7,23.5-22.7c6.4,0,12.4,2.8,17,7.7l9.4,9.4c4.5,4.4,10.9,7,17.5,7  c6.6,0,13-2.6,17.5-7l22.3-22.2c9.6-9.6,9.6-25.3,0-34.9l-9.8-9.6c-4.8-4.3-7.5-10.2-7.5-16.5c0-12.8,10.4-23.4,22.8-23.4h15.2  c13.6,0,23.3-10.7,23.3-24.3V256v-15.2C447.8,227.2,438.1,216.5,424.5,216.5z M336.8,256L336.8,256c0,44.1-35.7,80-80,80  c-44.3,0-80-35.9-80-80l0,0l0,0c0-44.1,35.7-80,80-80C301.1,176,336.8,211.9,336.8,256L336.8,256z"/>
</symbol>


</svg>