<svg style="display:none">
  <symbol id="icon-users" class="w-6 h-6 text-gray-800 " aria-hidden="true"
    xmlns="http://www.w3.org/2000/svg" width="24" height="24" fill="currentColor"
    viewBox="0 0 24 24">
    <path fill-rule="evenodd"
      d="M8 4a4 4 0 1 0 0 8 4 4 0 0 0 0-8Zm-2 9a4 4 0 0 0-4 4v1a2 2 0 0 0 2 2h8a2 2 0 0 0 2-2v-1a4 4 0 0 0-4-4H6Zm7.25-2.095c.478-.86.75-1.85.75-2.905a5.973 5.973 0 0 0-.75-2.906 4 4 0 1 1 0 5.811ZM15.466 20c.34-.588.535-1.271.535-2v-1a5.978 5.978 0 0 0-1.528-4H18a4 4 0 0 1 4 4v1a2 2 0 0 1-2 2h-4.535Z"
      clip-rule="evenodd" />
  </symbol>

  <symbol id="icon-info" class="w-6 h-6 text-gray-800 " aria-hidden="true"
    xmlns="http://www.w3.org/2000/svg" width="24" height="24" fill="currentColor"
    viewBox="0 0 28 28">
    <path fill-rule="evenodd"
      d="M2 12C2 6.477 6.477 2 12 2s10 4.477 10 10-4.477 10-10 10S2 17.523 2 12Zm9.408-5.5a1 1 0 1 0 0 2h.01a1 1 0 1 0 0-2h-.01ZM10 10a1 1 0 1 0 0 2h1v3h-1a1 1 0 1 0 0 2h4a1 1 0 1 0 0-2h-1v-4a1 1 0 0 0-1-1h-2Z"
      clip-rule="evenodd" />
  </symbol>
  <symbol id="icon-help" aria-hidden="true"
    class="w-6 h-6 text-gray-800 "
    fill="currentColor" viewBox="0 0 20 20" xmlns="http://www.w3.org/2000/svg">
    <path fill-rule="evenodd"
      d="M18 10a8 8 0 11-16 0 8 8 0 0116 0zm-2 0c0 .993-.241 1.929-.668 2.754l-1.524-1.525a3.997 3.997 0 00.078-2.183l1.562-1.562C15.802 8.249 16 9.1 16 10zm-5.165 3.913l1.58 1.58A5.98 5.98 0 0110 16a5.976 5.976 0 01-2.516-.552l1.562-1.562a4.006 4.006 0 001.789.027zm-4.677-2.796a4.002 4.002 0 01-.041-2.08l-.08.08-1.53-1.533A5.98 5.98 0 004 10c0 .954.223 1.856.619 2.657l1.54-1.54zm1.088-6.45A5.974 5.974 0 0110 4c.954 0 1.856.223 2.657.619l-1.54 1.54a4.002 4.002 0 00-2.346.033L7.246 4.668zM12 10a2 2 0 11-4 0 2 2 0 014 0z"
      clip-rule="evenodd"></path>
  </symbol>


<symbol id="icon-contacts" class="w-6 h-6 text-gray-800 " aria-hidden="true"
  xmlns="http://www.w3.org/2000/svg" width="24" height="24" fill="currentColor"
  viewBox="0 0 24 24">
  <path d="M12 12c2.21 0 4-1.79 4-4S14.21 4 12 4s-4 1.79-4 4s1.79 4 4 4zm0 2c-3.31 0-10 1.67-10 5v1h20v-1c0-3.33-6.69-5-10-5z"/>
</symbol>

<symbol id="icon-home" class="w-6 h-6 text-gray-800 " aria-hidden="true"
  xmlns="http://www.w3.org/2000/svg" width="24" height="24" fill="currentColor"
  viewBox="0 0 24 24">
  <path d="M12 3l9 9h-3v9H6v-9H3l9-9z"/>
</symbol>
<symbol id="icon-exit"
  aria-hidden="true"
  class="w-6 h-6 text-gray-800 "
  width="24"
  height="24"
  stroke="currentColor"
  viewBox="0 0 24 24"
  xmlns="http://www.w3.org/2000/svg">
  <path style="fill:none" stroke-linecap="round" stroke-linejoin="round" stroke-width="2" d="M17 16l4-4m0 0l-4-4m4 4H7m6 4v1a3 3 0 01-3 3H6a3 3 0 01-3-3V7a3 3 0 013-3h4a3 3 0 013 3v1"></path>
</symbol>
<symbol
  id="icon-left"
  className="w-6 h-6 text-gray-800 "
  aria-hidden="true"
  xmlns="http://www.w3.org/2000/svg"
  width="24"
  height="24"
  viewBox="0 0 24 24">
  <path stroke="currentColor" stroke-linecap="round" stroke-linejoin="round" stroke-width="2" d="M5 12h14M5 12l4-4m-4 4 4 4"/>
</symbol>
<symbol
  id="icon-generate"
  className="w-6 h-6 text-gray-800"
  aria-hidden="true"
  xmlns="http://www.w3.org/2000/svg"
  width="24"
  height="24"
  fill="currentColor"
  viewBox="0 0 24 24">
  <path fill-rule="currentColor" d="M17.44 3a1 1 0 0 1 .707.293l2.56 2.56a1 1 0 0 1 0 1.414L18.194 9.78 14.22 5.806l2.513-2.513A1 1 0 0 1 17.44 3Zm-4.634 4.22-9.513 9.513a1 1 0 0 0 0 1.414l2.56 2.56a1 1 0 0 0 1.414 0l9.513-9.513-3.974-3.974ZM6 6a1 1 0 0 1 1 1v1h1a1 1 0 0 1 0 2H7v1a1 1 0 1 1-2 0v-1H4a1 1 0 0 1 0-2h1V7a1 1 0 0 1 1-1Zm9 9a1 1 0 0 1 1 1v1h1a1 1 0 1 1 0 2h-1v1a1 1 0 1 1-2 0v-1h-1a1 1 0 1 1 0-2h1v-1a1 1 0 0 1 1-1Z" clip-rule="currentColor"/>
  <path d="M19 13h-2v2h2v-2ZM13 3h-2v2h2V3Zm-2 2H9v2h2V5ZM9 3H7v2h2V3Zm12 8h-2v2h2v-2Zm0 4h-2v2h2v-2Z"/>
</symbol>
<symbol
  id="icon-search"
  className="w-6 h-6 text-gray-800 "
  aria-hidden="true" xmlns="http://www.w3.org/2000/svg"
  width="24"
  height="24"
  fill="none"
  viewBox="0 0 30 30">
  <path stroke="currentColor" strokeLinecap="round" strokeWidth="2" d="m21 21-3.5-3.5M17 10a7 7 0 1 1-14 0 7 7 0 0 1 14 0Z"/>
</symbol>
<symbol
  fill="currentColor"
  className="w-6 h-6 text-gray-800 "
  height="22"
  width="22"
  id="icon-trash"
  xmlns="http://www.w3.org/2000/svg"
  viewBox="0 0 32 32"
  xml:space="preserve"
>
<g>
	<path d="M4.153,4.757v20.526h17V4.757H4.153z M8.569,22.386H5.775V7.82H8.57L8.569,22.386L8.569,22.386z M13.886,22.386h-2.797
		V7.82h2.797C13.886,7.82,13.886,22.386,13.886,22.386z M19.202,22.386h-2.795V7.82h2.795V22.386z"/>
	<path d="M19.931,3.704L21.13,3.7l-0.002-2.4l-5.463-0.006l-0.01-0.657c-1.643-0.875-4.76-0.82-6.014-0.014v0.702H4.13l0.004,2.402
		h1.199L19.931,3.704z"/>
</g>
</symbol>

<symbol
  className="w-6 h-6 text-gray-800 "
    id="icon-gear"
    width="20"
    height="20"
    viewBox="0 0 24 24"
    fill="none"
    xmlns="http://www.w3.org/2000/svg">
<path d="M15 12C15 13.6569 13.6569 15 12 15C10.3431 15 9 13.6569 9 12C9 10.3431 10.3431 9 12 9C13.6569 9 15 10.3431 15 12Z" stroke="#000000" stroke-width="2" stroke-linecap="round" stroke-linejoin="round"/>
<path d="M12.9046 3.06005C12.6988 3 12.4659 3 12 3C11.5341 3 11.3012 3 11.0954 3.06005C10.7942 3.14794 10.5281 3.32808 10.3346 3.57511C10.2024 3.74388 10.1159 3.96016 9.94291 4.39272C9.69419 5.01452 9.00393 5.33471 8.36857 5.123L7.79779 4.93281C7.3929 4.79785 7.19045 4.73036 6.99196 4.7188C6.70039 4.70181 6.4102 4.77032 6.15701 4.9159C5.98465 5.01501 5.83376 5.16591 5.53197 5.4677C5.21122 5.78845 5.05084 5.94882 4.94896 6.13189C4.79927 6.40084 4.73595 6.70934 4.76759 7.01551C4.78912 7.2239 4.87335 7.43449 5.04182 7.85566C5.30565 8.51523 5.05184 9.26878 4.44272 9.63433L4.16521 9.80087C3.74031 10.0558 3.52786 10.1833 3.37354 10.3588C3.23698 10.5141 3.13401 10.696 3.07109 10.893C3 11.1156 3 11.3658 3 11.8663C3 12.4589 3 12.7551 3.09462 13.0088C3.17823 13.2329 3.31422 13.4337 3.49124 13.5946C3.69158 13.7766 3.96395 13.8856 4.50866 14.1035C5.06534 14.3261 5.35196 14.9441 5.16236 15.5129L4.94721 16.1584C4.79819 16.6054 4.72367 16.829 4.7169 17.0486C4.70875 17.3127 4.77049 17.5742 4.89587 17.8067C5.00015 18.0002 5.16678 18.1668 5.5 18.5C5.83323 18.8332 5.99985 18.9998 6.19325 19.1041C6.4258 19.2295 6.68733 19.2913 6.9514 19.2831C7.17102 19.2763 7.39456 19.2018 7.84164 19.0528L8.36862 18.8771C9.00393 18.6654 9.6942 18.9855 9.94291 19.6073C10.1159 20.0398 10.2024 20.2561 10.3346 20.4249C10.5281 20.6719 10.7942 20.8521 11.0954 20.94C11.3012 21 11.5341 21 12 21C12.4659 21 12.6988 21 12.9046 20.94C13.2058 20.8521 13.4719 20.6719 13.6654 20.4249C13.7976 20.2561 13.8841 20.0398 14.0571 19.6073C14.3058 18.9855 14.9961 18.6654 15.6313 18.8773L16.1579 19.0529C16.605 19.2019 16.8286 19.2764 17.0482 19.2832C17.3123 19.2913 17.5738 19.2296 17.8063 19.1042C17.9997 18.9999 18.1664 18.8333 18.4996 18.5001C18.8328 18.1669 18.9994 18.0002 19.1037 17.8068C19.2291 17.5743 19.2908 17.3127 19.2827 17.0487C19.2759 16.8291 19.2014 16.6055 19.0524 16.1584L18.8374 15.5134C18.6477 14.9444 18.9344 14.3262 19.4913 14.1035C20.036 13.8856 20.3084 13.7766 20.5088 13.5946C20.6858 13.4337 20.8218 13.2329 20.9054 13.0088C21 12.7551 21 12.4589 21 11.8663C21 11.3658 21 11.1156 20.9289 10.893C20.866 10.696 20.763 10.5141 20.6265 10.3588C20.4721 10.1833 20.2597 10.0558 19.8348 9.80087L19.5569 9.63416C18.9478 9.26867 18.6939 8.51514 18.9578 7.85558C19.1262 7.43443 19.2105 7.22383 19.232 7.01543C19.2636 6.70926 19.2003 6.40077 19.0506 6.13181C18.9487 5.94875 18.7884 5.78837 18.4676 5.46762C18.1658 5.16584 18.0149 5.01494 17.8426 4.91583C17.5894 4.77024 17.2992 4.70174 17.0076 4.71872C16.8091 4.73029 16.6067 4.79777 16.2018 4.93273L15.6314 5.12287C14.9961 5.33464 14.3058 5.0145 14.0571 4.39272C13.8841 3.96016 13.7976 3.74388 13.6654 3.57511C13.4719 3.32808 13.2058 3.14794 12.9046 3.06005Z" stroke="#000000" stroke-width="2" stroke-linecap="round" stroke-linejoin="round"/>
</symbol>


</svg>